<?xml version="1.0" encoding="UTF-8" standalone="no"?>
<!DOCTYPE svg PUBLIC "-//W3C//DTD SVG 1.1//EN"
 "http://www.w3.org/Graphics/SVG/1.1/DTD/svg11.dtd">
<!-- Generated by graphviz version 2.40.1 (20161225.0304)
 -->
<!-- Title: PluginDependencies Pages: 1 -->
<svg width="1010pt" height="2219pt"
 viewBox="0.00 0.00 1009.86 2218.80" xmlns="http://www.w3.org/2000/svg" xmlns:xlink="http://www.w3.org/1999/xlink">
<g id="graph0" class="graph" transform="scale(1 1) rotate(0) translate(4 2214.8)">
<title>PluginDependencies</title>
<polygon fill="#ffffff" stroke="transparent" points="-4,4 -4,-2214.8 1005.8613,-2214.8 1005.8613,4 -4,4"/>
<text text-anchor="middle" x="500.9306" y="-8.2" font-family="Times,serif" font-size="14.00" fill="#000000">Dependencies</text>
<!-- Kapu_Base_DamageCalculation -->
<g id="node1" class="node">
<title>Kapu_Base_DamageCalculation</title>
<polygon fill="none" stroke="#000000" points="198.5733,-1500.8 .1421,-1500.8 .1421,-1464.8 198.5733,-1464.8 198.5733,-1500.8"/>
<text text-anchor="middle" x="99.3577" y="-1478.6" font-family="Times,serif" font-size="14.00" fill="#000000">Kapu_Base_DamageCalculation</text>
</g>
<!-- Kapu_Base_Hit -->
<g id="node2" class="node">
<title>Kapu_Base_Hit</title>
<polygon fill="none" stroke="#000000" points="152.2779,-213.8 46.4375,-213.8 46.4375,-177.8 152.2779,-177.8 152.2779,-213.8"/>
<text text-anchor="middle" x="99.3577" y="-191.6" font-family="Times,serif" font-size="14.00" fill="#000000">Kapu_Base_Hit</text>
</g>
<!-- Kapu_Base_Params -->
<g id="node3" class="node">
<title>Kapu_Base_Params</title>
<polygon fill="none" stroke="#000000" points="163.5972,-125.8 35.1182,-125.8 35.1182,-89.8 163.5972,-89.8 163.5972,-125.8"/>
<text text-anchor="middle" x="99.3577" y="-103.6" font-family="Times,serif" font-size="14.00" fill="#000000">Kapu_Base_Params</text>
</g>
<!-- Kapu_BasicStatusUI -->
<g id="node4" class="node">
<title>Kapu_BasicStatusUI</title>
<polygon fill="none" stroke="#000000" points="974.8556,-1346.8 841.0296,-1346.8 841.0296,-1310.8 974.8556,-1310.8 974.8556,-1346.8"/>
<text text-anchor="middle" x="907.9426" y="-1324.6" font-family="Times,serif" font-size="14.00" fill="#000000">Kapu_BasicStatusUI</text>
</g>
<!-- Kapu_IgnoreDEFMDEFOnCritical -->
<g id="node5" class="node">
<title>Kapu_IgnoreDEFMDEFOnCritical</title>
<polygon fill="none" stroke="#000000" points="455.4687,-1554.8 240.9072,-1554.8 240.9072,-1518.8 455.4687,-1518.8 455.4687,-1554.8"/>
<text text-anchor="middle" x="348.1879" y="-1532.6" font-family="Times,serif" font-size="14.00" fill="#000000">Kapu_IgnoreDEFMDEFOnCritical</text>
</g>
<!-- Kapu_IgnoreDEFMDEFOnCritical&#45;&gt;Kapu_Base_DamageCalculation -->
<g id="edge1" class="edge">
<title>Kapu_IgnoreDEFMDEFOnCritical&#45;&gt;Kapu_Base_DamageCalculation</title>
<path fill="none" stroke="#000000" d="M264.9851,-1518.7437C241.7441,-1513.7001 216.3401,-1508.187 192.5621,-1503.0268"/>
<polygon fill="#000000" stroke="#000000" points="192.9969,-1499.5398 182.4821,-1500.8393 191.5123,-1506.3805 192.9969,-1499.5398"/>
</g>
<!-- Kapu_IndependentItem -->
<g id="node6" class="node">
<title>Kapu_IndependentItem</title>
<polygon fill="none" stroke="#000000" points="173.5304,-1662.8 25.185,-1662.8 25.185,-1626.8 173.5304,-1626.8 173.5304,-1662.8"/>
<text text-anchor="middle" x="99.3577" y="-1640.6" font-family="Times,serif" font-size="14.00" fill="#000000">Kapu_IndependentItem</text>
</g>
<!-- Kapu_IndependentItem_Randomize -->
<g id="node7" class="node">
<title>Kapu_IndependentItem_Randomize</title>
<polygon fill="none" stroke="#000000" points="457.6222,-1662.8 238.7537,-1662.8 238.7537,-1626.8 457.6222,-1626.8 457.6222,-1662.8"/>
<text text-anchor="middle" x="348.1879" y="-1640.6" font-family="Times,serif" font-size="14.00" fill="#000000">Kapu_IndependentItem_Randomize</text>
</g>
<!-- Kapu_IndependentItem_Randomize&#45;&gt;Kapu_IndependentItem -->
<g id="edge2" class="edge">
<title>Kapu_IndependentItem_Randomize&#45;&gt;Kapu_IndependentItem</title>
<path fill="none" stroke="#000000" d="M238.6853,-1644.8C220.265,-1644.8 201.4024,-1644.8 183.7439,-1644.8"/>
<polygon fill="#000000" stroke="#000000" points="183.4984,-1641.3001 173.4984,-1644.8 183.4983,-1648.3001 183.4984,-1641.3001"/>
</g>
<!-- Kapu_ItemCore -->
<g id="node8" class="node">
<title>Kapu_ItemCore</title>
<polygon fill="none" stroke="#000000" points="961.1322,-1400.8 854.753,-1400.8 854.753,-1364.8 961.1322,-1364.8 961.1322,-1400.8"/>
<text text-anchor="middle" x="907.9426" y="-1378.6" font-family="Times,serif" font-size="14.00" fill="#000000">Kapu_ItemCore</text>
</g>
<!-- Kapu_PluginTemplate -->
<g id="node9" class="node">
<title>Kapu_PluginTemplate</title>
<polygon fill="none" stroke="#000000" points="979.196,-1454.8 836.6892,-1454.8 836.6892,-1418.8 979.196,-1418.8 979.196,-1454.8"/>
<text text-anchor="middle" x="907.9426" y="-1432.6" font-family="Times,serif" font-size="14.00" fill="#000000">Kapu_PluginTemplate</text>
</g>
<!-- Kapu_RangeDistance -->
<g id="node10" class="node">
<title>Kapu_RangeDistance</title>
<polygon fill="none" stroke="#000000" points="168.4209,-1800.8 30.2945,-1800.8 30.2945,-1764.8 168.4209,-1764.8 168.4209,-1800.8"/>
<text text-anchor="middle" x="99.3577" y="-1778.6" font-family="Times,serif" font-size="14.00" fill="#000000">Kapu_RangeDistance</text>
</g>
<!-- Kapu_SandBox -->
<g id="node11" class="node">
<title>Kapu_SandBox</title>
<polygon fill="none" stroke="#000000" points="960.0982,-1508.8 855.787,-1508.8 855.787,-1472.8 960.0982,-1472.8 960.0982,-1508.8"/>
<text text-anchor="middle" x="907.9426" y="-1486.6" font-family="Times,serif" font-size="14.00" fill="#000000">Kapu_SandBox</text>
</g>
<!-- Kapu_SandBox_Animation -->
<g id="node12" class="node">
<title>Kapu_SandBox_Animation</title>
<polygon fill="none" stroke="#000000" points="993.4818,-1562.8 822.4034,-1562.8 822.4034,-1526.8 993.4818,-1526.8 993.4818,-1562.8"/>
<text text-anchor="middle" x="907.9426" y="-1540.6" font-family="Times,serif" font-size="14.00" fill="#000000">Kapu_SandBox_Animation</text>
</g>
<!-- Kapu_SandBox_Animation2 -->
<g id="node13" class="node">
<title>Kapu_SandBox_Animation2</title>
<polygon fill="none" stroke="#000000" points="996.9818,-1616.8 818.9034,-1616.8 818.9034,-1580.8 996.9818,-1580.8 996.9818,-1616.8"/>
<text text-anchor="middle" x="907.9426" y="-1594.6" font-family="Times,serif" font-size="14.00" fill="#000000">Kapu_SandBox_Animation2</text>
</g>
<!-- Kapu_SandBox_CanvasFilter -->
<g id="node14" class="node">
<title>Kapu_SandBox_CanvasFilter</title>
<polygon fill="none" stroke="#000000" points="999.6377,-1670.8 816.2475,-1670.8 816.2475,-1634.8 999.6377,-1634.8 999.6377,-1670.8"/>
<text text-anchor="middle" x="907.9426" y="-1648.6" font-family="Times,serif" font-size="14.00" fill="#000000">Kapu_SandBox_CanvasFilter</text>
</g>
<!-- Kapu_SandBox_CriticalEffect -->
<g id="node15" class="node">
<title>Kapu_SandBox_CriticalEffect</title>
<polygon fill="none" stroke="#000000" points="1001.7801,-1724.8 814.1051,-1724.8 814.1051,-1688.8 1001.7801,-1688.8 1001.7801,-1724.8"/>
<text text-anchor="middle" x="907.9426" y="-1702.6" font-family="Times,serif" font-size="14.00" fill="#000000">Kapu_SandBox_CriticalEffect</text>
</g>
<!-- Kapu_SandBox_HelloScene -->
<g id="node16" class="node">
<title>Kapu_SandBox_HelloScene</title>
<polygon fill="none" stroke="#000000" points="996.1265,-1778.8 819.7587,-1778.8 819.7587,-1742.8 996.1265,-1742.8 996.1265,-1778.8"/>
<text text-anchor="middle" x="907.9426" y="-1756.6" font-family="Times,serif" font-size="14.00" fill="#000000">Kapu_SandBox_HelloScene</text>
</g>
<!-- Kapu_SandBox_HelloWorld -->
<g id="node17" class="node">
<title>Kapu_SandBox_HelloWorld</title>
<polygon fill="none" stroke="#000000" points="996.9664,-1832.8 818.9188,-1832.8 818.9188,-1796.8 996.9664,-1796.8 996.9664,-1832.8"/>
<text text-anchor="middle" x="907.9426" y="-1810.6" font-family="Times,serif" font-size="14.00" fill="#000000">Kapu_SandBox_HelloWorld</text>
</g>
<!-- Kapu_SandBox_Notetag -->
<g id="node18" class="node">
<title>Kapu_SandBox_Notetag</title>
<polygon fill="none" stroke="#000000" points="985.9146,-1886.8 829.9706,-1886.8 829.9706,-1850.8 985.9146,-1850.8 985.9146,-1886.8"/>
<text text-anchor="middle" x="907.9426" y="-1864.6" font-family="Times,serif" font-size="14.00" fill="#000000">Kapu_SandBox_Notetag</text>
</g>
<!-- Kapu_SkipTitle -->
<g id="node19" class="node">
<title>Kapu_SkipTitle</title>
<polygon fill="none" stroke="#000000" points="960.8769,-1940.8 855.0083,-1940.8 855.0083,-1904.8 960.8769,-1904.8 960.8769,-1940.8"/>
<text text-anchor="middle" x="907.9426" y="-1918.6" font-family="Times,serif" font-size="14.00" fill="#000000">Kapu_SkipTitle</text>
</g>
<!-- Kapu_Twld_BattleSystem -->
<g id="node20" class="node">
<title>Kapu_Twld_BattleSystem</title>
<polygon fill="none" stroke="#000000" points="181.39,-1731.8 17.3254,-1731.8 17.3254,-1695.8 181.39,-1695.8 181.39,-1731.8"/>
<text text-anchor="middle" x="99.3577" y="-1709.6" font-family="Times,serif" font-size="14.00" fill="#000000">Kapu_Twld_BattleSystem</text>
</g>
<!-- Kapu_Twld_DamageEffect -->
<g id="node21" class="node">
<title>Kapu_Twld_DamageEffect</title>
<polygon fill="none" stroke="#000000" points="993.1484,-1994.8 822.7367,-1994.8 822.7367,-1958.8 993.1484,-1958.8 993.1484,-1994.8"/>
<text text-anchor="middle" x="907.9426" y="-1972.6" font-family="Times,serif" font-size="14.00" fill="#000000">Kapu_Twld_DamageEffect</text>
</g>
<!-- Kapu_Twld_LukSystem -->
<g id="node22" class="node">
<title>Kapu_Twld_LukSystem</title>
<polygon fill="none" stroke="#000000" points="984.5896,-2048.8 831.2956,-2048.8 831.2956,-2012.8 984.5896,-2012.8 984.5896,-2048.8"/>
<text text-anchor="middle" x="907.9426" y="-2026.6" font-family="Times,serif" font-size="14.00" fill="#000000">Kapu_Twld_LukSystem</text>
</g>
<!-- Kapu_Twld_Menu -->
<g id="node23" class="node">
<title>Kapu_Twld_Menu</title>
<polygon fill="none" stroke="#000000" points="409.219,-1716.8 287.1569,-1716.8 287.1569,-1680.8 409.219,-1680.8 409.219,-1716.8"/>
<text text-anchor="middle" x="348.1879" y="-1694.6" font-family="Times,serif" font-size="14.00" fill="#000000">Kapu_Twld_Menu</text>
</g>
<!-- Kapu_Twld_Menu&#45;&gt;Kapu_Twld_BattleSystem -->
<g id="edge3" class="edge">
<title>Kapu_Twld_Menu&#45;&gt;Kapu_Twld_BattleSystem</title>
<path fill="none" stroke="#000000" d="M286.9985,-1702.4886C258.3025,-1704.2185 223.4947,-1706.3168 191.6892,-1708.2341"/>
<polygon fill="#000000" stroke="#000000" points="191.2511,-1704.754 181.4798,-1708.8495 191.6723,-1711.7413 191.2511,-1704.754"/>
</g>
<!-- Kapu_Twld_RangeDistanceUI -->
<g id="node24" class="node">
<title>Kapu_Twld_RangeDistanceUI</title>
<polygon fill="none" stroke="#000000" points="732.7228,-1762.8 542.9616,-1762.8 542.9616,-1726.8 732.7228,-1726.8 732.7228,-1762.8"/>
<text text-anchor="middle" x="637.8422" y="-1740.6" font-family="Times,serif" font-size="14.00" fill="#000000">Kapu_Twld_RangeDistanceUI</text>
</g>
<!-- Kapu_Twld_RangeDistanceUI&#45;&gt;Kapu_RangeDistance -->
<g id="edge5" class="edge">
<title>Kapu_Twld_RangeDistanceUI&#45;&gt;Kapu_RangeDistance</title>
<path fill="none" stroke="#000000" d="M543.1205,-1751.4844C439.65,-1758.7861 275.7564,-1770.3518 178.7665,-1777.1962"/>
<polygon fill="#000000" stroke="#000000" points="178.4551,-1773.7094 168.7263,-1777.9048 178.9479,-1780.6921 178.4551,-1773.7094"/>
</g>
<!-- Kapu_Twld_RangeDistanceUI&#45;&gt;Kapu_Twld_BattleSystem -->
<g id="edge4" class="edge">
<title>Kapu_Twld_RangeDistanceUI&#45;&gt;Kapu_Twld_BattleSystem</title>
<path fill="none" stroke="#000000" d="M542.8876,-1741.4325C461.1563,-1738.269 340.096,-1732.9515 234.7154,-1725.8 220.8889,-1724.8617 206.2807,-1723.7221 191.9777,-1722.5231"/>
<polygon fill="#000000" stroke="#000000" points="191.8934,-1719.0034 181.6323,-1721.6416 191.299,-1725.9781 191.8934,-1719.0034"/>
</g>
<!-- Kapu_Twld_RangeDistanceUI&#45;&gt;Kapu_Twld_Menu -->
<g id="edge6" class="edge">
<title>Kapu_Twld_RangeDistanceUI&#45;&gt;Kapu_Twld_Menu</title>
<path fill="none" stroke="#000000" d="M542.9986,-1729.7379C502.8825,-1723.3671 456.9348,-1716.0701 419.7408,-1710.1633"/>
<polygon fill="#000000" stroke="#000000" points="419.9196,-1706.6479 409.4944,-1708.5361 418.8217,-1713.5613 419.9196,-1706.6479"/>
</g>
<!-- Kapu_Twld_Shops -->
<g id="node25" class="node">
<title>Kapu_Twld_Shops</title>
<polygon fill="none" stroke="#000000" points="161.4559,-1608.8 37.2595,-1608.8 37.2595,-1572.8 161.4559,-1572.8 161.4559,-1608.8"/>
<text text-anchor="middle" x="99.3577" y="-1586.6" font-family="Times,serif" font-size="14.00" fill="#000000">Kapu_Twld_Shops</text>
</g>
<!-- Kapu_Twld_Shops_IndependentItem -->
<g id="node26" class="node">
<title>Kapu_Twld_Shops_IndependentItem</title>
<polygon fill="none" stroke="#000000" points="461.1376,-1608.8 235.2383,-1608.8 235.2383,-1572.8 461.1376,-1572.8 461.1376,-1608.8"/>
<text text-anchor="middle" x="348.1879" y="-1586.6" font-family="Times,serif" font-size="14.00" fill="#000000">Kapu_Twld_Shops_IndependentItem</text>
</g>
<!-- Kapu_Twld_Shops_IndependentItem&#45;&gt;Kapu_IndependentItem -->
<g id="edge7" class="edge">
<title>Kapu_Twld_Shops_IndependentItem&#45;&gt;Kapu_IndependentItem</title>
<path fill="none" stroke="#000000" d="M264.9851,-1608.8563C238.802,-1614.5384 209.8736,-1620.8163 183.6177,-1626.5143"/>
<polygon fill="#000000" stroke="#000000" points="182.7272,-1623.126 173.697,-1628.6672 184.2118,-1629.9667 182.7272,-1623.126"/>
</g>
<!-- Kapu_Twld_Shops_IndependentItem&#45;&gt;Kapu_Twld_Shops -->
<g id="edge8" class="edge">
<title>Kapu_Twld_Shops_IndependentItem&#45;&gt;Kapu_Twld_Shops</title>
<path fill="none" stroke="#000000" d="M235.0584,-1590.8C213.5212,-1590.8 191.5291,-1590.8 171.6924,-1590.8"/>
<polygon fill="#000000" stroke="#000000" points="171.5294,-1587.3001 161.5294,-1590.8 171.5293,-1594.3001 171.5294,-1587.3001"/>
</g>
<!-- Kapu_Twld_StatusUI -->
<g id="node27" class="node">
<title>Kapu_Twld_StatusUI</title>
<polygon fill="none" stroke="#000000" points="977.3039,-2102.8 838.5813,-2102.8 838.5813,-2066.8 977.3039,-2066.8 977.3039,-2102.8"/>
<text text-anchor="middle" x="907.9426" y="-2080.6" font-family="Times,serif" font-size="14.00" fill="#000000">Kapu_Twld_StatusUI</text>
</g>
<!-- Kapu_Twld_System -->
<g id="node28" class="node">
<title>Kapu_Twld_System</title>
<polygon fill="none" stroke="#000000" points="973.5366,-2156.8 842.3486,-2156.8 842.3486,-2120.8 973.5366,-2120.8 973.5366,-2156.8"/>
<text text-anchor="middle" x="907.9426" y="-2134.6" font-family="Times,serif" font-size="14.00" fill="#000000">Kapu_Twld_System</text>
</g>
<!-- Kapu_UniqueTraits -->
<g id="node29" class="node">
<title>Kapu_UniqueTraits</title>
<polygon fill="none" stroke="#000000" points="163.0444,-60.8 35.671,-60.8 35.671,-24.8 163.0444,-24.8 163.0444,-60.8"/>
<text text-anchor="middle" x="99.3577" y="-38.6" font-family="Times,serif" font-size="14.00" fill="#000000">Kapu_UniqueTraits</text>
</g>
<!-- Kapu_UserSkillOrder -->
<g id="node30" class="node">
<title>Kapu_UserSkillOrder</title>
<polygon fill="none" stroke="#000000" points="977.2871,-2210.8 838.5981,-2210.8 838.5981,-2174.8 977.2871,-2174.8 977.2871,-2210.8"/>
<text text-anchor="middle" x="907.9426" y="-2188.6" font-family="Times,serif" font-size="14.00" fill="#000000">Kapu_UserSkillOrder</text>
</g>
<!-- Kapu_Utility -->
<g id="node31" class="node">
<title>Kapu_Utility</title>
<polygon fill="none" stroke="#000000" points="144.2386,-830.8 54.4768,-830.8 54.4768,-794.8 144.2386,-794.8 144.2386,-830.8"/>
<text text-anchor="middle" x="99.3577" y="-808.6" font-family="Times,serif" font-size="14.00" fill="#000000">Kapu_Utility</text>
</g>
<!-- Kapu_ConditionStates -->
<g id="node32" class="node">
<title>Kapu_ConditionStates</title>
<polygon fill="none" stroke="#000000" points="419.4553,-1046.8 276.9206,-1046.8 276.9206,-1010.8 419.4553,-1010.8 419.4553,-1046.8"/>
<text text-anchor="middle" x="348.1879" y="-1024.6" font-family="Times,serif" font-size="14.00" fill="#000000">Kapu_ConditionStates</text>
</g>
<!-- Kapu_ConditionStates&#45;&gt;Kapu_Utility -->
<g id="edge9" class="edge">
<title>Kapu_ConditionStates&#45;&gt;Kapu_Utility</title>
<path fill="none" stroke="#000000" d="M276.8375,-1020.0135C262.0836,-1016.014 247.2391,-1010.2116 234.7154,-1001.8 173.4564,-960.6552 130.6544,-881.8713 111.1939,-840.2027"/>
<polygon fill="#000000" stroke="#000000" points="114.3009,-838.5806 106.9661,-830.9353 107.9324,-841.486 114.3009,-838.5806"/>
</g>
<!-- Kapu_Twld_TpSystem -->
<g id="node33" class="node">
<title>Kapu_Twld_TpSystem</title>
<polygon fill="none" stroke="#000000" points="421.335,-1500.8 275.0409,-1500.8 275.0409,-1464.8 421.335,-1464.8 421.335,-1500.8"/>
<text text-anchor="middle" x="348.1879" y="-1478.6" font-family="Times,serif" font-size="14.00" fill="#000000">Kapu_Twld_TpSystem</text>
</g>
<!-- Kapu_Twld_TpSystem&#45;&gt;Kapu_Base_DamageCalculation -->
<g id="edge11" class="edge">
<title>Kapu_Twld_TpSystem&#45;&gt;Kapu_Base_DamageCalculation</title>
<path fill="none" stroke="#000000" d="M274.8765,-1482.8C254.2398,-1482.8 231.3327,-1482.8 209.0632,-1482.8"/>
<polygon fill="#000000" stroke="#000000" points="208.8866,-1479.3001 198.8866,-1482.8 208.8866,-1486.3001 208.8866,-1479.3001"/>
</g>
<!-- Kapu_Twld_TpSystem&#45;&gt;Kapu_Utility -->
<g id="edge10" class="edge">
<title>Kapu_Twld_TpSystem&#45;&gt;Kapu_Utility</title>
<path fill="none" stroke="#000000" d="M275.0021,-1477.9582C260.0077,-1473.7716 245.5254,-1466.8961 234.7154,-1455.8 146.8898,-1365.65 109.9032,-953.2126 101.3637,-841.0352"/>
<polygon fill="#000000" stroke="#000000" points="104.8383,-840.5627 100.6044,-830.8507 97.8576,-841.0832 104.8383,-840.5627"/>
</g>
<!-- Kapu_Twld_BasicParams -->
<g id="node34" class="node">
<title>Kapu_Twld_BasicParams</title>
<polygon fill="none" stroke="#000000" points="429.3676,-1338.8 267.0082,-1338.8 267.0082,-1302.8 429.3676,-1302.8 429.3676,-1338.8"/>
<text text-anchor="middle" x="348.1879" y="-1316.6" font-family="Times,serif" font-size="14.00" fill="#000000">Kapu_Twld_BasicParams</text>
</g>
<!-- Kapu_Twld_BasicParams&#45;&gt;Kapu_Utility -->
<g id="edge12" class="edge">
<title>Kapu_Twld_BasicParams&#45;&gt;Kapu_Utility</title>
<path fill="none" stroke="#000000" d="M267.0618,-1312.7644C255.0976,-1308.5624 243.772,-1302.4952 234.7154,-1293.8 167.4481,-1229.2172 117.7004,-933.8783 103.4873,-840.907"/>
<polygon fill="#000000" stroke="#000000" points="106.9214,-840.2075 101.9673,-830.8423 99.9999,-841.2529 106.9214,-840.2075"/>
</g>
<!-- Kapu_Trait_Variance -->
<g id="node35" class="node">
<title>Kapu_Trait_Variance</title>
<polygon fill="none" stroke="#000000" points="417.2344,-992.8 279.1415,-992.8 279.1415,-956.8 417.2344,-956.8 417.2344,-992.8"/>
<text text-anchor="middle" x="348.1879" y="-970.6" font-family="Times,serif" font-size="14.00" fill="#000000">Kapu_Trait_Variance</text>
</g>
<!-- Kapu_Trait_Variance&#45;&gt;Kapu_Utility -->
<g id="edge13" class="edge">
<title>Kapu_Trait_Variance&#45;&gt;Kapu_Utility</title>
<path fill="none" stroke="#000000" d="M279.012,-964.7231C263.8203,-960.7942 248.2442,-955.3468 234.7154,-947.8 185.4366,-920.3107 141.9114,-869.7909 118.2324,-838.9552"/>
<polygon fill="#000000" stroke="#000000" points="120.9084,-836.6906 112.0917,-830.8154 115.3202,-840.9064 120.9084,-836.6906"/>
</g>
<!-- Kapu_Twld_Base -->
<g id="node36" class="node">
<title>Kapu_Twld_Base</title>
<polygon fill="none" stroke="#000000" points="696.4236,-144.8 579.2608,-144.8 579.2608,-108.8 696.4236,-108.8 696.4236,-144.8"/>
<text text-anchor="middle" x="637.8422" y="-122.6" font-family="Times,serif" font-size="14.00" fill="#000000">Kapu_Twld_Base</text>
</g>
<!-- Kapu_Twld_Base&#45;&gt;Kapu_Base_Hit -->
<g id="edge15" class="edge">
<title>Kapu_Twld_Base&#45;&gt;Kapu_Base_Hit</title>
<path fill="none" stroke="#000000" d="M579.1925,-136.3389C544.9608,-141.7686 500.9154,-148.5186 461.6605,-153.8 356.9861,-167.8831 234.909,-181.4442 162.5428,-189.1851"/>
<polygon fill="#000000" stroke="#000000" points="161.807,-185.7436 152.2345,-190.2843 162.5493,-192.7041 161.807,-185.7436"/>
</g>
<!-- Kapu_Twld_Base&#45;&gt;Kapu_Base_Params -->
<g id="edge14" class="edge">
<title>Kapu_Twld_Base&#45;&gt;Kapu_Base_Params</title>
<path fill="none" stroke="#000000" d="M578.971,-115.4862C544.856,-109.506 501.0004,-102.7969 461.6605,-99.8 361.0874,-92.1383 335.536,-96.8232 234.7154,-99.8 214.9784,-100.3827 193.6437,-101.4425 173.8771,-102.604"/>
<polygon fill="#000000" stroke="#000000" points="173.471,-99.1221 163.7002,-103.2187 173.8931,-106.1094 173.471,-99.1221"/>
</g>
<!-- Kapu_Twld_Base&#45;&gt;Kapu_UniqueTraits -->
<g id="edge17" class="edge">
<title>Kapu_Twld_Base&#45;&gt;Kapu_UniqueTraits</title>
<path fill="none" stroke="#000000" d="M579.2809,-114.2252C545.0786,-107.1169 501.0332,-98.3669 461.6605,-91.8 362.1016,-75.1947 246.4324,-60.3119 173.083,-51.419"/>
<polygon fill="#000000" stroke="#000000" points="173.3674,-47.928 163.02,-50.2044 172.5285,-54.8776 173.3674,-47.928"/>
</g>
<!-- Kapu_Twld_Base&#45;&gt;Kapu_Twld_BasicParams -->
<g id="edge16" class="edge">
<title>Kapu_Twld_Base&#45;&gt;Kapu_Twld_BasicParams</title>
<path fill="none" stroke="#000000" d="M634.5767,-144.8884C618.3297,-235.249 545.101,-646.8517 497.6605,-985.8 488.1086,-1054.0452 507.449,-1242.3019 461.6605,-1293.8 455.2692,-1300.9883 447.343,-1306.4386 438.6716,-1310.5485"/>
<polygon fill="#000000" stroke="#000000" points="437.3153,-1307.3218 429.3985,-1314.3627 439.9782,-1313.7955 437.3153,-1307.3218"/>
</g>
<!-- Kapu_Trait_TpbSpeed -->
<g id="node37" class="node">
<title>Kapu_Trait_TpbSpeed</title>
<polygon fill="none" stroke="#000000" points="420.4828,-938.8 275.893,-938.8 275.893,-902.8 420.4828,-902.8 420.4828,-938.8"/>
<text text-anchor="middle" x="348.1879" y="-916.6" font-family="Times,serif" font-size="14.00" fill="#000000">Kapu_Trait_TpbSpeed</text>
</g>
<!-- Kapu_Trait_TpbSpeed&#45;&gt;Kapu_Utility -->
<g id="edge18" class="edge">
<title>Kapu_Trait_TpbSpeed&#45;&gt;Kapu_Utility</title>
<path fill="none" stroke="#000000" d="M276.0205,-907.1348C262.0727,-903.5183 247.7514,-899.1041 234.7154,-893.8 198.0232,-878.8706 159.581,-854.9521 133.0808,-836.9693"/>
<polygon fill="#000000" stroke="#000000" points="134.7949,-833.9004 124.5714,-831.1198 130.8295,-839.6689 134.7949,-833.9004"/>
</g>
<!-- Kapu_Trait_TpbFastAction -->
<g id="node38" class="node">
<title>Kapu_Trait_TpbFastAction</title>
<polygon fill="none" stroke="#000000" points="433.7062,-884.8 262.6697,-884.8 262.6697,-848.8 433.7062,-848.8 433.7062,-884.8"/>
<text text-anchor="middle" x="348.1879" y="-862.6" font-family="Times,serif" font-size="14.00" fill="#000000">Kapu_Trait_TpbFastAction</text>
</g>
<!-- Kapu_Trait_TpbFastAction&#45;&gt;Kapu_Utility -->
<g id="edge19" class="edge">
<title>Kapu_Trait_TpbFastAction&#45;&gt;Kapu_Utility</title>
<path fill="none" stroke="#000000" d="M264.9851,-848.7437C228.6518,-840.8588 187.032,-831.8267 154.6027,-824.789"/>
<polygon fill="#000000" stroke="#000000" points="154.9299,-821.2786 144.415,-822.5781 153.4453,-828.1194 154.9299,-821.2786"/>
</g>
<!-- Kapu_Trait_PreemptiveRate -->
<g id="node39" class="node">
<title>Kapu_Trait_PreemptiveRate</title>
<polygon fill="none" stroke="#000000" points="436.6334,-830.8 259.7425,-830.8 259.7425,-794.8 436.6334,-794.8 436.6334,-830.8"/>
<text text-anchor="middle" x="348.1879" y="-808.6" font-family="Times,serif" font-size="14.00" fill="#000000">Kapu_Trait_PreemptiveRate</text>
</g>
<!-- Kapu_Trait_PreemptiveRate&#45;&gt;Kapu_Utility -->
<g id="edge20" class="edge">
<title>Kapu_Trait_PreemptiveRate&#45;&gt;Kapu_Utility</title>
<path fill="none" stroke="#000000" d="M259.4084,-812.8C224.4229,-812.8 185.3316,-812.8 154.5403,-812.8"/>
<polygon fill="#000000" stroke="#000000" points="154.4342,-809.3001 144.4342,-812.8 154.4342,-816.3001 154.4342,-809.3001"/>
</g>
<!-- Kapu_Trait_Penetrate -->
<g id="node40" class="node">
<title>Kapu_Trait_Penetrate</title>
<polygon fill="none" stroke="#000000" points="417.8015,-1446.8 278.5744,-1446.8 278.5744,-1410.8 417.8015,-1410.8 417.8015,-1446.8"/>
<text text-anchor="middle" x="348.1879" y="-1424.6" font-family="Times,serif" font-size="14.00" fill="#000000">Kapu_Trait_Penetrate</text>
</g>
<!-- Kapu_Trait_Penetrate&#45;&gt;Kapu_Base_DamageCalculation -->
<g id="edge22" class="edge">
<title>Kapu_Trait_Penetrate&#45;&gt;Kapu_Base_DamageCalculation</title>
<path fill="none" stroke="#000000" d="M278.544,-1443.9138C251.9215,-1449.6913 221.1186,-1456.376 192.6413,-1462.556"/>
<polygon fill="#000000" stroke="#000000" points="191.7064,-1459.1774 182.6761,-1464.7186 193.191,-1466.0181 191.7064,-1459.1774"/>
</g>
<!-- Kapu_Trait_Penetrate&#45;&gt;Kapu_Utility -->
<g id="edge21" class="edge">
<title>Kapu_Trait_Penetrate&#45;&gt;Kapu_Utility</title>
<path fill="none" stroke="#000000" d="M278.394,-1424.6715C262.2572,-1420.5928 246.4116,-1413.5868 234.7154,-1401.8 153.7898,-1320.2479 112.2645,-947.1812 101.9515,-841.0445"/>
<polygon fill="#000000" stroke="#000000" points="105.4085,-840.4257 100.9735,-830.8038 98.4402,-841.0913 105.4085,-840.4257"/>
</g>
<!-- Kapu_Trait_MaxTpRate -->
<g id="node41" class="node">
<title>Kapu_Trait_MaxTpRate</title>
<polygon fill="none" stroke="#000000" points="425.5869,-776.8 270.789,-776.8 270.789,-740.8 425.5869,-740.8 425.5869,-776.8"/>
<text text-anchor="middle" x="348.1879" y="-754.6" font-family="Times,serif" font-size="14.00" fill="#000000">Kapu_Trait_MaxTpRate</text>
</g>
<!-- Kapu_Trait_MaxTpRate&#45;&gt;Kapu_Utility -->
<g id="edge23" class="edge">
<title>Kapu_Trait_MaxTpRate&#45;&gt;Kapu_Utility</title>
<path fill="none" stroke="#000000" d="M270.8205,-775.5899C233.0348,-783.79 188.4593,-793.4636 154.2299,-800.8919"/>
<polygon fill="#000000" stroke="#000000" points="153.4424,-797.4812 144.4122,-803.0225 154.9271,-804.322 153.4424,-797.4812"/>
</g>
<!-- Kapu_Twld_BasicParams_DamageCalculation -->
<g id="node42" class="node">
<title>Kapu_Twld_BasicParams_DamageCalculation</title>
<polygon fill="none" stroke="#000000" points="778.2058,-1392.8 497.4786,-1392.8 497.4786,-1356.8 778.2058,-1356.8 778.2058,-1392.8"/>
<text text-anchor="middle" x="637.8422" y="-1370.6" font-family="Times,serif" font-size="14.00" fill="#000000">Kapu_Twld_BasicParams_DamageCalculation</text>
</g>
<!-- Kapu_Twld_BasicParams_DamageCalculation&#45;&gt;Kapu_Twld_BasicParams -->
<g id="edge26" class="edge">
<title>Kapu_Twld_BasicParams_DamageCalculation&#45;&gt;Kapu_Twld_BasicParams</title>
<path fill="none" stroke="#000000" d="M540.9888,-1356.7437C508.1992,-1350.6308 471.7109,-1343.8283 439.3766,-1337.8002"/>
<polygon fill="#000000" stroke="#000000" points="439.956,-1334.348 429.4839,-1335.9559 438.673,-1341.2294 439.956,-1334.348"/>
</g>
<!-- Kapu_Twld_BasicParams_DamageCalculation&#45;&gt;Kapu_Trait_Penetrate -->
<g id="edge25" class="edge">
<title>Kapu_Twld_BasicParams_DamageCalculation&#45;&gt;Kapu_Trait_Penetrate</title>
<path fill="none" stroke="#000000" d="M540.9888,-1392.8563C504.3157,-1399.6932 463.016,-1407.3927 428.0758,-1413.9066"/>
<polygon fill="#000000" stroke="#000000" points="427.1143,-1410.5254 417.9252,-1415.799 428.3973,-1417.4069 427.1143,-1410.5254"/>
</g>
<!-- Kapu_DamageCalculation -->
<g id="node64" class="node">
<title>Kapu_DamageCalculation</title>
<ellipse fill="none" stroke="#000000" cx="348.1879" cy="-1374.8" rx="113.4451" ry="18"/>
<text text-anchor="middle" x="348.1879" y="-1370.6" font-family="Times,serif" font-size="14.00" fill="#000000">Kapu_DamageCalculation</text>
</g>
<!-- Kapu_Twld_BasicParams_DamageCalculation&#45;&gt;Kapu_DamageCalculation -->
<g id="edge24" class="edge">
<title>Kapu_Twld_BasicParams_DamageCalculation&#45;&gt;Kapu_DamageCalculation</title>
<path fill="none" stroke="#000000" d="M497.2575,-1374.8C488.8546,-1374.8 480.4326,-1374.8 472.1049,-1374.8"/>
<polygon fill="#000000" stroke="#000000" points="472.0012,-1371.3001 462.0012,-1374.8 472.0011,-1378.3001 472.0012,-1371.3001"/>
</g>
<!-- Kapu_Trait_InitialTpCharge -->
<g id="node43" class="node">
<title>Kapu_Trait_InitialTpCharge</title>
<polygon fill="none" stroke="#000000" points="436.6348,-722.8 259.7411,-722.8 259.7411,-686.8 436.6348,-686.8 436.6348,-722.8"/>
<text text-anchor="middle" x="348.1879" y="-700.6" font-family="Times,serif" font-size="14.00" fill="#000000">Kapu_Trait_InitialTpCharge</text>
</g>
<!-- Kapu_Trait_InitialTpCharge&#45;&gt;Kapu_Utility -->
<g id="edge27" class="edge">
<title>Kapu_Trait_InitialTpCharge&#45;&gt;Kapu_Utility</title>
<path fill="none" stroke="#000000" d="M260.2969,-722.8637C251.5374,-725.5089 242.8746,-728.4801 234.7154,-731.8 198.0232,-746.7294 159.581,-770.6479 133.0808,-788.6307"/>
<polygon fill="#000000" stroke="#000000" points="130.8295,-785.9311 124.5714,-794.4802 134.7949,-791.6996 130.8295,-785.9311"/>
</g>
<!-- Kapu_Trait_EquipPerformance -->
<g id="node44" class="node">
<title>Kapu_Trait_EquipPerformance</title>
<polygon fill="none" stroke="#000000" points="444.6754,-144.8 251.7005,-144.8 251.7005,-108.8 444.6754,-108.8 444.6754,-144.8"/>
<text text-anchor="middle" x="348.1879" y="-122.6" font-family="Times,serif" font-size="14.00" fill="#000000">Kapu_Trait_EquipPerformance</text>
</g>
<!-- Kapu_Trait_EquipPerformance&#45;&gt;Kapu_Base_Params -->
<g id="edge29" class="edge">
<title>Kapu_Trait_EquipPerformance&#45;&gt;Kapu_Base_Params</title>
<path fill="none" stroke="#000000" d="M251.6275,-119.4269C225.8082,-117.4554 198.3018,-115.3551 173.8721,-113.4897"/>
<polygon fill="#000000" stroke="#000000" points="173.842,-109.9773 163.6045,-112.7057 173.3089,-116.957 173.842,-109.9773"/>
</g>
<!-- Kapu_Trait_EquipPerformance&#45;&gt;Kapu_Utility -->
<g id="edge28" class="edge">
<title>Kapu_Trait_EquipPerformance&#45;&gt;Kapu_Utility</title>
<path fill="none" stroke="#000000" d="M297.467,-144.8004C275.0446,-155.2233 250.2864,-170.5604 234.7154,-191.8 163.1261,-289.4514 114.8029,-676.0618 102.4675,-784.4292"/>
<polygon fill="#000000" stroke="#000000" points="98.9648,-784.2581 101.3245,-794.5868 105.9209,-785.0409 98.9648,-784.2581"/>
</g>
<!-- Kapu_Trait_DropItemRate -->
<g id="node45" class="node">
<title>Kapu_Trait_DropItemRate</title>
<polygon fill="none" stroke="#000000" points="431.7986,-668.8 264.5773,-668.8 264.5773,-632.8 431.7986,-632.8 431.7986,-668.8"/>
<text text-anchor="middle" x="348.1879" y="-646.6" font-family="Times,serif" font-size="14.00" fill="#000000">Kapu_Trait_DropItemRate</text>
</g>
<!-- Kapu_Trait_DropItemRate&#45;&gt;Kapu_Utility -->
<g id="edge30" class="edge">
<title>Kapu_Trait_DropItemRate&#45;&gt;Kapu_Utility</title>
<path fill="none" stroke="#000000" d="M264.3776,-665.138C254.0534,-668.5103 243.9114,-672.6702 234.7154,-677.8 185.4366,-705.2893 141.9114,-755.8091 118.2324,-786.6448"/>
<polygon fill="#000000" stroke="#000000" points="115.3202,-784.6936 112.0917,-794.7846 120.9084,-788.9094 115.3202,-784.6936"/>
</g>
<!-- Kapu_Trait_DropGoldRate -->
<g id="node46" class="node">
<title>Kapu_Trait_DropGoldRate</title>
<polygon fill="none" stroke="#000000" points="433.139,-614.8 263.2369,-614.8 263.2369,-578.8 433.139,-578.8 433.139,-614.8"/>
<text text-anchor="middle" x="348.1879" y="-592.6" font-family="Times,serif" font-size="14.00" fill="#000000">Kapu_Trait_DropGoldRate</text>
</g>
<!-- Kapu_Trait_DropGoldRate&#45;&gt;Kapu_Utility -->
<g id="edge31" class="edge">
<title>Kapu_Trait_DropGoldRate&#45;&gt;Kapu_Utility</title>
<path fill="none" stroke="#000000" d="M263.2179,-609.83C253.1391,-613.4174 243.3727,-617.9853 234.7154,-623.8 173.4564,-664.9448 130.6544,-743.7287 111.1939,-785.3973"/>
<polygon fill="#000000" stroke="#000000" points="107.9324,-784.114 106.9661,-794.6647 114.3009,-787.0194 107.9324,-784.114"/>
</g>
<!-- Kapu_Trait_CriticalDamageRate -->
<g id="node47" class="node">
<title>Kapu_Trait_CriticalDamageRate</title>
<polygon fill="none" stroke="#000000" points="449.0044,-560.8 247.3715,-560.8 247.3715,-524.8 449.0044,-524.8 449.0044,-560.8"/>
<text text-anchor="middle" x="348.1879" y="-538.6" font-family="Times,serif" font-size="14.00" fill="#000000">Kapu_Trait_CriticalDamageRate</text>
</g>
<!-- Kapu_Trait_CriticalDamageRate&#45;&gt;Kapu_Utility -->
<g id="edge32" class="edge">
<title>Kapu_Trait_CriticalDamageRate&#45;&gt;Kapu_Utility</title>
<path fill="none" stroke="#000000" d="M248.9735,-560.8976C243.9503,-563.4873 239.1551,-566.4383 234.7154,-569.8 161.0584,-625.5723 121.8954,-733.7028 106.8076,-784.7827"/>
<polygon fill="#000000" stroke="#000000" points="103.4156,-783.9148 104.0287,-794.4919 110.1454,-785.841 103.4156,-783.9148"/>
</g>
<!-- Kapu_Trait_CertainlyHitEva -->
<g id="node48" class="node">
<title>Kapu_Trait_CertainlyHitEva</title>
<polygon fill="none" stroke="#000000" points="437.9716,-236.8 258.4043,-236.8 258.4043,-200.8 437.9716,-200.8 437.9716,-236.8"/>
<text text-anchor="middle" x="348.1879" y="-214.6" font-family="Times,serif" font-size="14.00" fill="#000000">Kapu_Trait_CertainlyHitEva</text>
</g>
<!-- Kapu_Trait_CertainlyHitEva&#45;&gt;Kapu_Base_Hit -->
<g id="edge34" class="edge">
<title>Kapu_Trait_CertainlyHitEva&#45;&gt;Kapu_Base_Hit</title>
<path fill="none" stroke="#000000" d="M258.3545,-210.4965C226.4759,-207.5499 191.307,-204.2991 162.1682,-201.6057"/>
<polygon fill="#000000" stroke="#000000" points="162.4079,-198.1131 152.1282,-200.6777 161.7636,-205.0833 162.4079,-198.1131"/>
</g>
<!-- Kapu_Trait_CertainlyHitEva&#45;&gt;Kapu_Utility -->
<g id="edge33" class="edge">
<title>Kapu_Trait_CertainlyHitEva&#45;&gt;Kapu_Utility</title>
<path fill="none" stroke="#000000" d="M258.5255,-229.8263C249.7051,-233.7955 241.5194,-239.001 234.7154,-245.8 156.5856,-323.8719 113.2848,-681.0141 102.2196,-784.5769"/>
<polygon fill="#000000" stroke="#000000" points="98.7312,-784.2843 101.1658,-794.5956 105.6928,-785.0166 98.7312,-784.2843"/>
</g>
<!-- Kapu_Trait_CastTime -->
<g id="node49" class="node">
<title>Kapu_Trait_CastTime</title>
<polygon fill="none" stroke="#000000" points="419.153,-506.8 277.2229,-506.8 277.2229,-470.8 419.153,-470.8 419.153,-506.8"/>
<text text-anchor="middle" x="348.1879" y="-484.6" font-family="Times,serif" font-size="14.00" fill="#000000">Kapu_Trait_CastTime</text>
</g>
<!-- Kapu_Trait_CastTime&#45;&gt;Kapu_Utility -->
<g id="edge35" class="edge">
<title>Kapu_Trait_CastTime&#45;&gt;Kapu_Utility</title>
<path fill="none" stroke="#000000" d="M276.9991,-495.4123C261.8208,-499.5047 246.7571,-505.8942 234.7154,-515.8 148.4082,-586.7984 114.7459,-724.6795 103.8381,-784.2496"/>
<polygon fill="#000000" stroke="#000000" points="100.3333,-783.9742 102.0586,-794.4276 107.2287,-785.1798 100.3333,-783.9742"/>
</g>
<!-- Kapu_Trait_AutoGuardRate -->
<g id="node50" class="node">
<title>Kapu_Trait_AutoGuardRate</title>
<polygon fill="none" stroke="#000000" points="436.3536,-452.8 260.0223,-452.8 260.0223,-416.8 436.3536,-416.8 436.3536,-452.8"/>
<text text-anchor="middle" x="348.1879" y="-430.6" font-family="Times,serif" font-size="14.00" fill="#000000">Kapu_Trait_AutoGuardRate</text>
</g>
<!-- Kapu_Trait_AutoGuardRate&#45;&gt;Kapu_Utility -->
<g id="edge36" class="edge">
<title>Kapu_Trait_AutoGuardRate&#45;&gt;Kapu_Utility</title>
<path fill="none" stroke="#000000" d="M259.967,-446.5226C250.7771,-450.3546 242.111,-455.3375 234.7154,-461.8 135.2521,-548.714 108.464,-717.3648 101.5994,-784.3638"/>
<polygon fill="#000000" stroke="#000000" points="98.0907,-784.2903 100.6291,-794.5766 105.0593,-784.9525 98.0907,-784.2903"/>
</g>
<!-- Kapu_TpbEffects -->
<g id="node51" class="node">
<title>Kapu_TpbEffects</title>
<polygon fill="none" stroke="#000000" points="405.701,-398.8 290.6749,-398.8 290.6749,-362.8 405.701,-362.8 405.701,-398.8"/>
<text text-anchor="middle" x="348.1879" y="-376.6" font-family="Times,serif" font-size="14.00" fill="#000000">Kapu_TpbEffects</text>
</g>
<!-- Kapu_TpbEffects&#45;&gt;Kapu_Utility -->
<g id="edge37" class="edge">
<title>Kapu_TpbEffects&#45;&gt;Kapu_Utility</title>
<path fill="none" stroke="#000000" d="M290.6554,-383.2733C270.8586,-386.8102 249.8809,-393.9268 234.7154,-407.8 176.9405,-460.6517 122.3492,-702.0407 105.0258,-784.8344"/>
<polygon fill="#000000" stroke="#000000" points="101.5672,-784.2762 102.9654,-794.7783 108.4216,-785.6964 101.5672,-784.2762"/>
</g>
<!-- Kapu_SkillCost -->
<g id="node52" class="node">
<title>Kapu_SkillCost</title>
<polygon fill="none" stroke="#000000" points="401.1363,-344.8 295.2396,-344.8 295.2396,-308.8 401.1363,-308.8 401.1363,-344.8"/>
<text text-anchor="middle" x="348.1879" y="-322.6" font-family="Times,serif" font-size="14.00" fill="#000000">Kapu_SkillCost</text>
</g>
<!-- Kapu_SkillCost&#45;&gt;Kapu_Utility -->
<g id="edge38" class="edge">
<title>Kapu_SkillCost&#45;&gt;Kapu_Utility</title>
<path fill="none" stroke="#000000" d="M295.3351,-328.1736C274.103,-331.333 250.8794,-338.4734 234.7154,-353.8 170.2655,-414.9111 119.0537,-694.1152 103.9239,-784.4867"/>
<polygon fill="#000000" stroke="#000000" points="100.4392,-784.1068 102.2592,-794.5442 107.3453,-785.25 100.4392,-784.1068"/>
</g>
<!-- Kapu_PassiveStates -->
<g id="node53" class="node">
<title>Kapu_PassiveStates</title>
<polygon fill="none" stroke="#000000" points="412.4386,-290.8 283.9373,-290.8 283.9373,-254.8 412.4386,-254.8 412.4386,-290.8"/>
<text text-anchor="middle" x="348.1879" y="-268.6" font-family="Times,serif" font-size="14.00" fill="#000000">Kapu_PassiveStates</text>
</g>
<!-- Kapu_PassiveStates&#45;&gt;Kapu_Utility -->
<g id="edge39" class="edge">
<title>Kapu_PassiveStates&#45;&gt;Kapu_Utility</title>
<path fill="none" stroke="#000000" d="M283.6768,-276.0142C265.8546,-279.876 247.8311,-287.0002 234.7154,-299.8 163.3928,-369.4049 115.9337,-687.8662 102.9543,-784.7531"/>
<polygon fill="#000000" stroke="#000000" points="99.4814,-784.3177 101.6405,-794.6902 106.4211,-785.2353 99.4814,-784.3177"/>
</g>
<!-- Kapu_GrowupSystem -->
<g id="node54" class="node">
<title>Kapu_GrowupSystem</title>
<polygon fill="none" stroke="#000000" points="418.6066,-1230.8 277.7693,-1230.8 277.7693,-1194.8 418.6066,-1194.8 418.6066,-1230.8"/>
<text text-anchor="middle" x="348.1879" y="-1208.6" font-family="Times,serif" font-size="14.00" fill="#000000">Kapu_GrowupSystem</text>
</g>
<!-- Kapu_GrowupSystem&#45;&gt;Kapu_Utility -->
<g id="edge40" class="edge">
<title>Kapu_GrowupSystem&#45;&gt;Kapu_Utility</title>
<path fill="none" stroke="#000000" d="M277.7808,-1203.9011C262.1282,-1199.1249 246.6594,-1191.8514 234.7154,-1180.8 132.9807,-1086.668 107.4507,-909.4851 101.262,-840.9039"/>
<polygon fill="#000000" stroke="#000000" points="104.7434,-840.5341 100.4261,-830.8588 97.7675,-841.1146 104.7434,-840.5341"/>
</g>
<!-- Kapu_EquipSlots -->
<g id="node55" class="node">
<title>Kapu_EquipSlots</title>
<polygon fill="none" stroke="#000000" points="405.461,-1284.8 290.9149,-1284.8 290.9149,-1248.8 405.461,-1248.8 405.461,-1284.8"/>
<text text-anchor="middle" x="348.1879" y="-1262.6" font-family="Times,serif" font-size="14.00" fill="#000000">Kapu_EquipSlots</text>
</g>
<!-- Kapu_EquipSlots&#45;&gt;Kapu_Utility -->
<g id="edge41" class="edge">
<title>Kapu_EquipSlots&#45;&gt;Kapu_Utility</title>
<path fill="none" stroke="#000000" d="M290.8296,-1264.5071C270.9342,-1261.002 249.8467,-1253.8598 234.7154,-1239.8 174.2158,-1183.5844 120.9335,-926.7329 104.5362,-840.8567"/>
<polygon fill="#000000" stroke="#000000" points="107.9754,-840.2066 102.6791,-831.0305 101.0971,-841.5066 107.9754,-840.2066"/>
</g>
<!-- Kapu_Twld_BasicParams_Growup -->
<g id="node56" class="node">
<title>Kapu_Twld_BasicParams_Growup</title>
<polygon fill="none" stroke="#000000" points="745.3956,-1338.8 530.2888,-1338.8 530.2888,-1302.8 745.3956,-1302.8 745.3956,-1338.8"/>
<text text-anchor="middle" x="637.8422" y="-1316.6" font-family="Times,serif" font-size="14.00" fill="#000000">Kapu_Twld_BasicParams_Growup</text>
</g>
<!-- Kapu_Twld_BasicParams_Growup&#45;&gt;Kapu_Twld_BasicParams -->
<g id="edge43" class="edge">
<title>Kapu_Twld_BasicParams_Growup&#45;&gt;Kapu_Twld_BasicParams</title>
<path fill="none" stroke="#000000" d="M529.9856,-1320.8C500.2022,-1320.8 468.1833,-1320.8 439.4413,-1320.8"/>
<polygon fill="#000000" stroke="#000000" points="439.4206,-1317.3001 429.4206,-1320.8 439.4206,-1324.3001 439.4206,-1317.3001"/>
</g>
<!-- Kapu_Twld_BasicParams_Growup&#45;&gt;Kapu_GrowupSystem -->
<g id="edge42" class="edge">
<title>Kapu_Twld_BasicParams_Growup&#45;&gt;Kapu_GrowupSystem</title>
<path fill="none" stroke="#000000" d="M530.0752,-1304.6434C518.6343,-1300.4995 507.5737,-1295.3061 497.6605,-1288.8 475.0681,-1273.9725 484.1847,-1254.731 461.6605,-1239.8 451.6389,-1233.1568 440.1619,-1228.1428 428.4438,-1224.3595"/>
<polygon fill="#000000" stroke="#000000" points="429.1514,-1220.9196 418.5705,-1221.4623 427.1804,-1227.6364 429.1514,-1220.9196"/>
</g>
<!-- Kapu_GrowupSystem_UI -->
<g id="node57" class="node">
<title>Kapu_GrowupSystem_UI</title>
<polygon fill="none" stroke="#000000" points="719.0275,-1246.8 556.6569,-1246.8 556.6569,-1210.8 719.0275,-1210.8 719.0275,-1246.8"/>
<text text-anchor="middle" x="637.8422" y="-1224.6" font-family="Times,serif" font-size="14.00" fill="#000000">Kapu_GrowupSystem_UI</text>
</g>
<!-- Kapu_GrowupSystem_UI&#45;&gt;Kapu_GrowupSystem -->
<g id="edge44" class="edge">
<title>Kapu_GrowupSystem_UI&#45;&gt;Kapu_GrowupSystem</title>
<path fill="none" stroke="#000000" d="M556.3865,-1224.3005C516.5187,-1222.0983 468.6702,-1219.4552 428.9021,-1217.2585"/>
<polygon fill="#000000" stroke="#000000" points="428.889,-1213.7525 418.7111,-1216.6956 428.5028,-1220.7419 428.889,-1213.7525"/>
</g>
<!-- Kapu_Twld_GrowupSystem -->
<g id="node58" class="node">
<title>Kapu_Twld_GrowupSystem</title>
<polygon fill="none" stroke="#000000" points="996.4104,-1292.8 819.4748,-1292.8 819.4748,-1256.8 996.4104,-1256.8 996.4104,-1292.8"/>
<text text-anchor="middle" x="907.9426" y="-1270.6" font-family="Times,serif" font-size="14.00" fill="#000000">Kapu_Twld_GrowupSystem</text>
</g>
<!-- Kapu_Twld_GrowupSystem&#45;&gt;Kapu_GrowupSystem -->
<g id="edge45" class="edge">
<title>Kapu_Twld_GrowupSystem&#45;&gt;Kapu_GrowupSystem</title>
<path fill="none" stroke="#000000" d="M819.3994,-1280.0609C735.4096,-1282.867 606.258,-1281.4853 497.6605,-1255.8 480.6215,-1251.77 478.2479,-1245.4059 461.6605,-1239.8 451.0515,-1236.2146 439.7309,-1232.9182 428.5012,-1229.9534"/>
<polygon fill="#000000" stroke="#000000" points="429.2322,-1226.5277 418.6763,-1227.4344 427.4937,-1233.3084 429.2322,-1226.5277"/>
</g>
<!-- Kapu_Twld_GrowupSystem&#45;&gt;Kapu_Twld_BasicParams_Growup -->
<g id="edge46" class="edge">
<title>Kapu_Twld_GrowupSystem&#45;&gt;Kapu_Twld_BasicParams_Growup</title>
<path fill="none" stroke="#000000" d="M819.1275,-1289.9258C798.1937,-1293.491 775.5742,-1297.3433 753.6459,-1301.0778"/>
<polygon fill="#000000" stroke="#000000" points="752.8983,-1297.6546 743.6279,-1302.7839 754.0736,-1304.5553 752.8983,-1297.6546"/>
</g>
<!-- Kapu_Twld_GrowupSystem&#45;&gt;Kapu_GrowupSystem_UI -->
<g id="edge47" class="edge">
<title>Kapu_Twld_GrowupSystem&#45;&gt;Kapu_GrowupSystem_UI</title>
<path fill="none" stroke="#000000" d="M819.1275,-1259.6742C790.2439,-1254.7551 758.1514,-1249.2895 729.0929,-1244.3406"/>
<polygon fill="#000000" stroke="#000000" points="729.397,-1240.8421 718.9513,-1242.6135 728.2217,-1247.7427 729.397,-1240.8421"/>
</g>
<!-- Kapu_GrowupSystem_Skills -->
<g id="node59" class="node">
<title>Kapu_GrowupSystem_Skills</title>
<polygon fill="none" stroke="#000000" points="727.6595,-1192.8 548.0249,-1192.8 548.0249,-1156.8 727.6595,-1156.8 727.6595,-1192.8"/>
<text text-anchor="middle" x="637.8422" y="-1170.6" font-family="Times,serif" font-size="14.00" fill="#000000">Kapu_GrowupSystem_Skills</text>
</g>
<!-- Kapu_GrowupSystem_Skills&#45;&gt;Kapu_Utility -->
<g id="edge49" class="edge">
<title>Kapu_GrowupSystem_Skills&#45;&gt;Kapu_Utility</title>
<path fill="none" stroke="#000000" d="M547.7612,-1176.8106C444.3418,-1177.3407 282.7668,-1172.1691 234.7154,-1136.8 136.093,-1064.2071 108.9018,-906.0433 101.7646,-841.2981"/>
<polygon fill="#000000" stroke="#000000" points="105.2144,-840.627 100.7173,-831.034 98.2505,-841.3376 105.2144,-840.627"/>
</g>
<!-- Kapu_GrowupSystem_Skills&#45;&gt;Kapu_GrowupSystem -->
<g id="edge48" class="edge">
<title>Kapu_GrowupSystem_Skills&#45;&gt;Kapu_GrowupSystem</title>
<path fill="none" stroke="#000000" d="M548.1774,-1186.5632C510.0578,-1191.5641 465.9439,-1197.3515 428.8622,-1202.2163"/>
<polygon fill="#000000" stroke="#000000" points="428.0603,-1198.7914 418.6005,-1203.5625 428.9709,-1205.7319 428.0603,-1198.7914"/>
</g>
<!-- Kapu_GrowupSystem_Params -->
<g id="node60" class="node">
<title>Kapu_GrowupSystem_Params</title>
<polygon fill="none" stroke="#000000" points="731.9682,-1138.8 543.7162,-1138.8 543.7162,-1102.8 731.9682,-1102.8 731.9682,-1138.8"/>
<text text-anchor="middle" x="637.8422" y="-1116.6" font-family="Times,serif" font-size="14.00" fill="#000000">Kapu_GrowupSystem_Params</text>
</g>
<!-- Kapu_GrowupSystem_Params&#45;&gt;Kapu_Utility -->
<g id="edge50" class="edge">
<title>Kapu_GrowupSystem_Params&#45;&gt;Kapu_Utility</title>
<path fill="none" stroke="#000000" d="M543.6816,-1129.4116C440.6207,-1136.9194 283.5208,-1142.1415 234.7154,-1109.8 140.6942,-1047.4957 111.0506,-902.5246 102.5145,-841.106"/>
<polygon fill="#000000" stroke="#000000" points="105.9582,-840.4467 101.1958,-830.9826 99.0169,-841.3509 105.9582,-840.4467"/>
</g>
<!-- Kapu_GrowupSystem_Params&#45;&gt;Kapu_GrowupSystem -->
<g id="edge51" class="edge">
<title>Kapu_GrowupSystem_Params&#45;&gt;Kapu_GrowupSystem</title>
<path fill="none" stroke="#000000" d="M543.6343,-1135.9866C528.1306,-1139.3285 512.3394,-1143.2555 497.6605,-1147.8 461.3165,-1159.0519 421.9192,-1176.4137 392.7003,-1190.3641"/>
<polygon fill="#000000" stroke="#000000" points="391.073,-1187.2631 383.588,-1194.7615 394.1154,-1193.5674 391.073,-1187.2631"/>
</g>
<!-- Kapu_ElementCore -->
<g id="node61" class="node">
<title>Kapu_ElementCore</title>
<polygon fill="none" stroke="#000000" points="411.8747,-1100.8 284.5012,-1100.8 284.5012,-1064.8 411.8747,-1064.8 411.8747,-1100.8"/>
<text text-anchor="middle" x="348.1879" y="-1078.6" font-family="Times,serif" font-size="14.00" fill="#000000">Kapu_ElementCore</text>
</g>
<!-- Kapu_ElementCore&#45;&gt;Kapu_Utility -->
<g id="edge52" class="edge">
<title>Kapu_ElementCore&#45;&gt;Kapu_Utility</title>
<path fill="none" stroke="#000000" d="M284.3724,-1077.1436C266.9733,-1073.1837 249.003,-1066.6184 234.7154,-1055.8 161.0584,-1000.0277 121.8954,-891.8972 106.8076,-840.8173"/>
<polygon fill="#000000" stroke="#000000" points="110.1454,-839.759 104.0287,-831.1081 103.4156,-841.6852 110.1454,-839.759"/>
</g>
<!-- Kapu_Trait_AttackElementRate -->
<g id="node62" class="node">
<title>Kapu_Trait_AttackElementRate</title>
<polygon fill="none" stroke="#000000" points="736.4995,-1030.8 539.1849,-1030.8 539.1849,-994.8 736.4995,-994.8 736.4995,-1030.8"/>
<text text-anchor="middle" x="637.8422" y="-1008.6" font-family="Times,serif" font-size="14.00" fill="#000000">Kapu_Trait_AttackElementRate</text>
</g>
<!-- Kapu_Trait_AttackElementRate&#45;&gt;Kapu_ElementCore -->
<g id="edge53" class="edge">
<title>Kapu_Trait_AttackElementRate&#45;&gt;Kapu_ElementCore</title>
<path fill="none" stroke="#000000" d="M539.096,-1028.8759C525.0588,-1032.0112 510.9023,-1035.6421 497.6605,-1039.8 480.9556,-1045.0453 478.2479,-1050.1941 461.6605,-1055.8 448.8476,-1060.1303 434.9967,-1064.0389 421.5216,-1067.451"/>
<polygon fill="#000000" stroke="#000000" points="420.6687,-1064.0564 411.7962,-1069.8468 422.3431,-1070.8532 420.6687,-1064.0564"/>
</g>
<!-- Kapu_Trait_ElementAbsorb -->
<g id="node63" class="node">
<title>Kapu_Trait_ElementAbsorb</title>
<polygon fill="none" stroke="#000000" points="725.7382,-1084.8 549.9461,-1084.8 549.9461,-1048.8 725.7382,-1048.8 725.7382,-1084.8"/>
<text text-anchor="middle" x="637.8422" y="-1062.6" font-family="Times,serif" font-size="14.00" fill="#000000">Kapu_Trait_ElementAbsorb</text>
</g>
<!-- Kapu_Trait_ElementAbsorb&#45;&gt;Kapu_ElementCore -->
<g id="edge54" class="edge">
<title>Kapu_Trait_ElementAbsorb&#45;&gt;Kapu_ElementCore</title>
<path fill="none" stroke="#000000" d="M549.7566,-1071.6657C508.9623,-1073.9191 461.0335,-1076.5666 422.1494,-1078.7145"/>
<polygon fill="#000000" stroke="#000000" points="421.745,-1075.2314 411.9533,-1079.2777 422.1312,-1082.2207 421.745,-1075.2314"/>
</g>
</g>
</svg>
